<?xml version="1.0" encoding="UTF-8"?>
<svg width="621px" height="607px" viewBox="0 0 621 607" version="1.1" xmlns="http://www.w3.org/2000/svg" xmlns:xlink="http://www.w3.org/1999/xlink">
    <title>Mark Mono</title>
    <g id="Mark-Mono" stroke="none" stroke-width="1" fill="none" fill-rule="evenodd">
        <circle id="Oval-Copy" fill="#FFFFFF" cx="230" cy="310" r="45"></circle>
        <circle id="Oval-Copy-2" fill="#FFFFFF" cx="390" cy="310" r="45"></circle>
        <circle id="Oval-Copy-3" fill="#FFFFFF" cx="310" cy="390" r="45"></circle>
        <circle id="Oval-Copy-4" fill="#FFFFFF" cx="310" cy="220" r="45"></circle>
        <path d="M310.5,100 C426.75594,100 521,194.299001 521,310.622714 C521,388.619872 478.253711,459.09071 411.027831,495.71828 C406.180305,498.359422 400.110787,496.568503 397.471183,491.718151 C394.83158,486.867798 396.621455,480.794742 401.468981,478.153599 C462.328804,444.994533 501.011748,381.222459 501.011748,310.622714 C501.011748,205.344643 415.716733,119.999904 310.5,119.999904 C205.283267,119.999904 119.988252,205.344643 119.988252,310.622714 C119.988252,381.266613 158.719871,445.072373 219.639569,478.212697 C224.488811,480.850685 226.282632,486.922576 223.646181,491.774644 C221.00973,496.626713 214.941377,498.42158 210.092135,495.783592 C142.800035,459.176681 100,388.668688 100,310.622714 C100,194.299001 194.24406,100 310.5,100 Z" id="Path" fill="#FFFFFF" fill-rule="nonzero"></path>
        <path d="M300.50102,462.142947 C300.312468,448.944324 319.910583,448.532338 320.487364,461.461389 L320.49898,461.857262 L320.57653,467.285777 C320.731074,478.103839 329.453645,486.814942 340.229878,486.997135 L340.57449,487.000046 L356,487.000046 C361.522847,487.000046 366,491.477188 366,497.000023 C366,502.429251 361.673329,506.847932 356.279905,506.996158 L356,507 L340.57449,507 C328.765458,507 318.13846,501.87885 310.811224,493.724238 L310.571,493.453031 L310.535999,493.494903 C303.343085,501.624473 292.893212,506.805538 281.229841,506.994641 L280.568368,507 L266,507 C260.477153,507 256,502.522858 256,497.000023 C256,491.570796 260.326671,487.152114 265.720095,487.003888 L266,487.000046 L280.568368,487.000046 C291.499003,487.000046 300.381593,478.231338 300.56546,467.344581 L300.568368,467.000093 L300.566327,466.714408 L300.50102,462.142947 Z" id="Line" fill="#FFFFFF" fill-rule="nonzero"></path>
    </g>
</svg>