<?xml version="1.0" encoding="UTF-8"?>
<svg width="421px" height="407px" viewBox="0 0 421 407" version="1.1" xmlns="http://www.w3.org/2000/svg" xmlns:xlink="http://www.w3.org/1999/xlink">
    <title>Mark Mono</title>
    <defs>
        <filter id="filter-1">
            <feColorMatrix in="SourceGraphic" type="matrix" values="0 0 0 0 0.000000 0 0 0 0 0.000000 0 0 0 0 0.000000 0 0 0 1.000000 0"></feColorMatrix>
        </filter>
    </defs>
    <g id="Page-1" stroke="none" stroke-width="1" fill="none" fill-rule="evenodd">
        <g filter="url(#filter-1)" id="Mark-Mono">
            <g>
                <circle id="Oval-Copy" fill="#FFFFFF" fill-rule="nonzero" cx="130" cy="210" r="45"></circle>
                <circle id="Oval-Copy-2" fill="#FFFFFF" fill-rule="nonzero" cx="290" cy="210" r="45"></circle>
                <circle id="Oval-Copy-3" fill="#FFFFFF" fill-rule="nonzero" cx="210" cy="290" r="45"></circle>
                <circle id="Oval-Copy-4" fill="#FFFFFF" fill-rule="nonzero" cx="210" cy="120" r="45"></circle>
                <path d="M210.5,0 C326.75594,0 421,94.299001 421,210.622714 C421,288.619872 378.253711,359.09071 311.027831,395.71828 C306.180305,398.359422 300.110787,396.568503 297.471183,391.718151 C294.83158,386.867798 296.621455,380.794742 301.468981,378.153599 C362.328804,344.994533 401.011748,281.222459 401.011748,210.622714 C401.011748,105.344643 315.716733,19.999904 210.5,19.999904 C105.283267,19.999904 19.988252,105.344643 19.988252,210.622714 C19.988252,281.266613 58.719871,345.072373 119.639569,378.212697 C124.488811,380.850685 126.282632,386.922576 123.646181,391.774644 C121.00973,396.626713 114.941377,398.42158 110.092135,395.783592 C42.800035,359.176681 0,288.668688 0,210.622714 C0,94.299001 94.24406,0 210.5,0 Z" id="Path" fill="#FFFFFF" fill-rule="nonzero"></path>
                <path d="M200.50102,362.142947 C200.312468,348.944324 219.910583,348.532338 220.487364,361.461389 L220.49898,361.857262 L220.57653,367.285777 C220.731074,378.103839 229.453645,386.814942 240.229878,386.997135 L240.57449,387.000046 L256,387.000046 C261.522847,387.000046 266,391.477188 266,397.000023 C266,402.429251 261.673329,406.847932 256.279905,406.996158 L256,407 L240.57449,407 C228.765458,407 218.13846,401.87885 210.811224,393.724238 L210.571,393.453031 L210.535999,393.494903 C203.343085,401.624473 192.893212,406.805538 181.229841,406.994641 L180.568368,407 L166,407 C160.477153,407 156,402.522858 156,397.000023 C156,391.570796 160.326671,387.152114 165.720095,387.003888 L166,387.000046 L180.568368,387.000046 C191.499003,387.000046 200.381593,378.231338 200.56546,367.344581 L200.568368,367.000093 L200.566327,366.714408 L200.50102,362.142947 Z" id="Line" fill="#FFFFFF" fill-rule="nonzero"></path>
            </g>
        </g>
    </g>
</svg>