<?xml version="1.0" encoding="UTF-8"?>
<svg width="1282px" height="607px" viewBox="0 0 1282 607" version="1.1" xmlns="http://www.w3.org/2000/svg" xmlns:xlink="http://www.w3.org/1999/xlink">
    <title>abbrev color</title>
    <g id="abbrev-color" stroke="none" stroke-width="1" fill="none" fill-rule="evenodd">
        <circle id="Oval-Copy" fill="#1B998B" cx="230.623724" cy="309.567763" r="45"></circle>
        <circle id="Oval-Copy-2" fill="#1B998B" cx="390.623724" cy="309.567763" r="45"></circle>
        <circle id="Oval-Copy-3" fill="#1B998B" cx="310.623724" cy="389.567763" r="45"></circle>
        <circle id="Oval-Copy-4" fill="#1B998B" cx="310.623724" cy="219.567763" r="45"></circle>
        <path d="M310.623724,100 C426.947995,100 521.247448,194.299453 521.247448,310.623724 C521.247448,388.621256 478.476034,459.092431 411.210642,495.720177 C406.360266,498.361332 400.287181,496.570405 397.646025,491.720029 C395.00487,486.869653 396.795798,480.796568 401.646173,478.155413 C462.541767,444.996187 501.247448,381.223807 501.247448,310.623724 C501.247448,205.345148 415.9023,120 310.623724,120 C205.345148,120 120,205.345148 120,310.623724 C120,381.267962 158.754384,445.074027 219.709889,478.21451 C224.561981,480.852511 226.356856,486.924431 223.718856,491.776523 C221.080855,496.628615 215.008935,498.42349 210.156843,495.78549 C142.825191,459.178403 100,388.670072 100,310.623724 C100,194.299453 194.299453,100 310.623724,100 Z" id="Path" fill="#3D52D5" fill-rule="nonzero"></path>
        <path d="M301.124744,461.710605 C300.936192,448.511952 320.534307,448.099965 321.111088,461.029046 L321.122704,461.42492 L321.200254,466.853448 C321.354798,477.671535 330.077369,486.382658 340.853602,486.564852 L341.198214,486.567763 L356.623724,486.567763 C362.146571,486.567763 366.623724,491.044915 366.623724,496.567763 C366.623724,501.997003 362.297053,506.415694 356.903629,506.563921 L356.623724,506.567763 L341.198214,506.567763 C329.389182,506.567763 318.762183,501.446601 311.434948,493.291969 L311.194724,493.020763 L311.159723,493.062635 C303.966809,501.192224 293.516936,506.3733 281.853565,506.562404 L281.192091,506.567763 L266.623724,506.567763 C261.100876,506.567763 256.623724,502.09061 256.623724,496.567763 C256.623724,491.138523 260.950395,486.719831 266.343819,486.571605 L266.623724,486.567763 L281.192091,486.567763 C292.122727,486.567763 301.005316,477.799034 301.189184,466.912252 L301.192091,466.567763 L301.190051,466.282078 L301.124744,461.710605 Z" id="Line" fill="#E83151" fill-rule="nonzero"></path>
        <text id="PEL" font-family="Karla-Bold, Karla" font-size="396" font-weight="bold" letter-spacing="-19.584838" fill="#000000">
            <tspan x="582" y="433">PEL</tspan>
        </text>
    </g>
</svg>